<svg width="33" height="32" viewBox="0 0 33 32" fill="none" xmlns="http://www.w3.org/2000/svg">
<path fill-rule="evenodd" clip-rule="evenodd" d="M15.348 9.75206L13.1258 7.46634H5.58268C5.28813 7.46634 5.04935 7.70512 5.04935 7.99967V23.9997C5.04935 24.2942 5.28813 24.533 5.58268 24.533H26.916C27.2106 24.533 27.4494 24.2942 27.4494 23.9997V10.2854C27.4494 9.99084 27.2106 9.75206 26.916 9.75206H15.348ZM14.0271 5.33301H5.58268C4.10992 5.33301 2.91602 6.52692 2.91602 7.99967V23.9997C2.91602 25.4724 4.10992 26.6663 5.58268 26.6663H26.916C28.3888 26.6663 29.5827 25.4724 29.5827 23.9997V10.2854C29.5827 8.81263 28.3888 7.61872 26.916 7.61872H16.2493L14.0271 5.33301ZM19.1827 18.3997H16.2493V16.2664H19.1827V13.333H21.316V16.2664H24.2493V18.3997H21.316V21.333H19.1827V18.3997Z" fill="#303336"/>
</svg>
