<svg width="33" height="32" viewBox="0 0 33 32" fill="none" xmlns="http://www.w3.org/2000/svg">
<path fill-rule="evenodd" clip-rule="evenodd" d="M13.7897 4.97675C14.1661 5.20383 14.5184 5.46594 14.8422 5.75874C15.404 6.26676 15.8803 6.86715 16.2492 7.53714C16.6181 6.86715 17.0944 6.26676 17.6562 5.75874C17.9801 5.46594 18.3323 5.20383 18.7088 4.97675C19.7384 4.3557 20.9129 4.01877 22.1135 4C24.0275 4.0836 25.8307 4.92529 27.1293 6.34119C28.4279 7.75709 29.1163 9.63211 29.0441 11.5566C29.0441 18.8185 17.3624 27.2079 16.8655 27.5616L16.2492 28L15.6329 27.5616C15.1361 27.2058 3.45438 18.8185 3.45438 11.5566C3.38214 9.63211 4.07052 7.75709 5.36911 6.34119C6.6677 4.92529 8.47096 4.0836 10.3849 4C11.5856 4.01877 12.76 4.3557 13.7897 4.97675ZM19.8106 6.80352C20.4999 6.38776 21.2828 6.15783 22.084 6.13448C23.4076 6.20891 24.6539 6.7984 25.5571 7.78315C26.4751 8.78404 26.9635 10.1118 26.9122 11.4766L26.9107 11.5166V11.5566C26.9107 12.8225 26.3903 14.3154 25.3884 15.9626C25.3267 16.064 25.2636 16.1654 25.1991 16.2667H20.82L18.47 12.7417C18.2503 12.4121 17.866 12.2314 17.4721 12.2724C17.0781 12.3135 16.7393 12.5694 16.5921 12.9372L14.5263 18.1019L13.0034 16.5791C12.8034 16.3791 12.5321 16.2667 12.2492 16.2667H7.29959C7.235 16.1653 7.17178 16.0638 7.11 15.9622C6.10808 14.3152 5.58771 12.8224 5.58771 11.5566V11.5166L5.58621 11.4766C5.53498 10.1118 6.02336 8.78404 6.94133 7.78315C7.84449 6.7984 9.09079 6.20891 10.4144 6.13448C11.2156 6.15783 11.9985 6.38776 12.6878 6.80352C13.3952 7.23018 13.9794 7.83779 14.3804 8.56605L16.2492 11.9603L18.118 8.56605C18.519 7.83779 19.1032 7.23018 19.8106 6.80352ZM8.8546 18.4C9.48941 19.1784 10.1773 19.9363 10.8824 20.6571C13.0218 22.8442 15.2027 24.5727 16.2496 25.3648C17.2939 24.5751 19.4757 22.8461 21.616 20.658C22.3212 19.9369 23.0093 19.1787 23.6443 18.4H20.2492C19.8925 18.4 19.5595 18.2218 19.3617 17.925L17.8198 15.6122L15.9062 20.3962C15.7731 20.7291 15.4816 20.9728 15.1303 21.0449C14.7791 21.117 14.4151 21.0078 14.1616 20.7543L11.8074 18.4H8.8546Z" fill="#303336"/>
</svg>
