<svg width="33" height="32" viewBox="0 0 33 32" fill="none" xmlns="http://www.w3.org/2000/svg">
<path fill-rule="evenodd" clip-rule="evenodd" d="M15.0493 12.5333H17.4493V6.13333H15.0493V12.5333ZM14.2493 4C13.513 4 12.916 4.59695 12.916 5.33333V9.33333H4.24935C3.51297 9.33333 2.91602 9.93029 2.91602 10.6667V28C2.91602 28.7364 3.51297 29.3333 4.24935 29.3333H28.2493C28.9857 29.3333 29.5827 28.7364 29.5827 28V10.6667C29.5827 9.93029 28.9857 9.33333 28.2493 9.33333H19.5827V5.33333C19.5827 4.59695 18.9857 4 18.2493 4H14.2493ZM5.04935 11.4667H12.916V13.3333C12.916 14.0697 13.513 14.6667 14.2493 14.6667H18.2493C18.9857 14.6667 19.5827 14.0697 19.5827 13.3333V11.4667H27.4494V27.2H5.04935V11.4667ZM12.316 19.8667C13.3101 19.8667 14.116 19.0608 14.116 18.0667C14.116 17.0726 13.3101 16.2667 12.316 16.2667C11.3219 16.2667 10.516 17.0726 10.516 18.0667C10.516 19.0608 11.3219 19.8667 12.316 19.8667ZM24.2493 19.7333H18.916V17.6H24.2493V19.7333ZM8.24935 22.8C8.24935 21.6954 9.14478 20.8 10.2493 20.8H12.2493H14.2493C15.3539 20.8 16.2493 21.6954 16.2493 22.8V24H8.24935V22.8ZM24.2493 23.7333H18.916V21.6H24.2493V23.7333Z" fill="#303336"/>
</svg>
