<svg width="33" height="32" viewBox="0 0 33 32" fill="none" xmlns="http://www.w3.org/2000/svg">
<path fill-rule="evenodd" clip-rule="evenodd" d="M26.0833 6.13333H7.41667C7.12211 6.13333 6.88333 6.37211 6.88333 6.66667V25.3333C6.88333 25.6279 7.12211 25.8667 7.41667 25.8667H26.0833C26.3779 25.8667 26.6167 25.6279 26.6167 25.3333V6.66667C26.6167 6.37211 26.3779 6.13333 26.0833 6.13333ZM7.41667 4C5.94391 4 4.75 5.19391 4.75 6.66667V25.3333C4.75 26.8061 5.94391 28 7.41667 28H26.0833C27.5561 28 28.75 26.8061 28.75 25.3333V6.66667C28.75 5.19391 27.5561 4 26.0833 4H7.41667ZM12.4833 16V22.6667H10.3499V16H12.4833ZM21.0166 22.6667H23.1499V9.33333H21.0166V22.6667ZM17.8166 18.6667V22.6667H15.6833V18.6667H17.8166ZM17.8166 16V13.3333H15.6833V16H17.8166Z" fill="#303336"/>
</svg>
