<svg xmlns="http://www.w3.org/2000/svg" width="91.616" height="20.16" viewBox="0 0 91.616 20.16">
  <g id="그룹_17924" data-name="그룹 17924" transform="translate(24282 24602.88)">
    <path id="패스_15570" data-name="패스 15570" d="M1.064,0,14.812-19.6H13.748L0,0ZM32.172-19.6h-4.2V0h4.2Zm-4.76,0H26.348L19.572-9.94V-19.6h-4.2V-2.352Z" transform="translate(-24282 -24583)" fill="#2b2b2b"/>
    <path id="패스_15571" data-name="패스 15571" d="M-.084,0,7.392-10.136.308-19.6H5.152L9.8-13.16l4.62-6.44H19.1l-6.972,9.464L19.684,0H14.84L9.716-7.112,4.592,0ZM24.752-3.612h3.416a6.431,6.431,0,0,0,2.45-.462,6.071,6.071,0,0,0,1.988-1.3,5.847,5.847,0,0,0,1.316-1.96,6.326,6.326,0,0,0,.462-2.436,6.265,6.265,0,0,0-.476-2.45A6.1,6.1,0,0,0,32.592-14.2a6.1,6.1,0,0,0-1.974-1.316,6.265,6.265,0,0,0-2.45-.476H24.752ZM20.692,0V-19.6h7.532a11.017,11.017,0,0,1,4.088.742,9.973,9.973,0,0,1,3.276,2.086,9.87,9.87,0,0,1,2.2,3.136,9.39,9.39,0,0,1,.8,3.864A9.407,9.407,0,0,1,37.8-5.908a9.511,9.511,0,0,1-2.2,3.094,10.255,10.255,0,0,1-3.29,2.072A11.017,11.017,0,0,1,28.224,0ZM48.356.28A12.721,12.721,0,0,1,43.708-.6a12.685,12.685,0,0,1-4.032-2.506L42-6.02a12.388,12.388,0,0,0,3.29,2.184,8.47,8.47,0,0,0,3.346.672,6.853,6.853,0,0,0,2.128-.294,3.059,3.059,0,0,0,1.386-.854,1.935,1.935,0,0,0,.49-1.316,1.827,1.827,0,0,0-.728-1.554,6.077,6.077,0,0,0-2.492-.854l-3.892-.672a6.66,6.66,0,0,1-3.794-1.764,4.781,4.781,0,0,1-1.3-3.472,5.388,5.388,0,0,1,.938-3.164,5.9,5.9,0,0,1,2.66-2.058,10.68,10.68,0,0,1,4.1-.714,13.282,13.282,0,0,1,4.3.728,12.826,12.826,0,0,1,3.794,2.016L54.04-14.112a10.163,10.163,0,0,0-6.188-2.352,5.846,5.846,0,0,0-1.9.28,2.876,2.876,0,0,0-1.246.77,1.7,1.7,0,0,0-.434,1.162,1.64,1.64,0,0,0,.644,1.386,5.053,5.053,0,0,0,2.156.742l3.7.616a8.135,8.135,0,0,1,4.4,1.862,4.812,4.812,0,0,1,1.456,3.654,5.567,5.567,0,0,1-1.008,3.318A6.435,6.435,0,0,1,52.738-.49,11.419,11.419,0,0,1,48.356.28Z" transform="translate(-24247 -24583)" fill="#222"/>
  </g>
</svg>
