<svg width="33" height="32" viewBox="0 0 33 32" fill="none" xmlns="http://www.w3.org/2000/svg">
<path fill-rule="evenodd" clip-rule="evenodd" d="M22.1336 10.6944L13.5836 3.97656L3.18359 12.148V27.7331H11.5836V25.5998H5.31693V13.1849L13.5836 6.68963L19.2981 11.1796C19.9908 10.8505 20.7657 10.6664 21.5836 10.6664C21.7693 10.6664 21.9528 10.6759 22.1336 10.6944ZM21.5836 17.8664C22.6145 17.8664 23.4502 17.0307 23.4502 15.9998C23.4502 14.9688 22.6145 14.1331 21.5836 14.1331C20.5526 14.1331 19.7169 14.9688 19.7169 15.9998C19.7169 17.0307 20.5526 17.8664 21.5836 17.8664ZM21.5836 19.9998C23.7927 19.9998 25.5836 18.2089 25.5836 15.9998C25.5836 13.7906 23.7927 11.9998 21.5836 11.9998C19.3744 11.9998 17.5836 13.7906 17.5836 15.9998C17.5836 18.2089 19.3744 19.9998 21.5836 19.9998ZM26.9906 22.6191C23.5551 21.0575 19.6121 21.0575 16.1766 22.6191L15.3721 22.9848C14.0393 23.5906 13.1836 24.9195 13.1836 26.3835V27.7331H29.9836V26.3835C29.9836 24.9195 29.1279 23.5906 27.7951 22.9848L26.9906 22.6191ZM17.0594 24.5612C19.934 23.2546 23.2332 23.2546 26.1078 24.5612L26.9123 24.9269C27.2284 25.0706 27.4818 25.3091 27.6452 25.5997H15.522C15.6854 25.3091 15.9388 25.0706 16.2548 24.9269L17.0594 24.5612Z" fill="#303336"/>
</svg>
