<svg width="33" height="32" viewBox="0 0 33 32" fill="none" xmlns="http://www.w3.org/2000/svg">
<path fill-rule="evenodd" clip-rule="evenodd" d="M28.0143 4.45C28.3074 4.64843 28.4829 4.97933 28.4829 5.33327V24.6666C28.4829 25.1377 28.174 25.5529 27.7228 25.6883L21.0561 27.6883C20.8456 27.7514 20.6208 27.748 20.4123 27.6785L12.7649 25.1294L6.1386 27.5389C5.26902 27.8552 4.34961 27.2112 4.34961 26.2859V7.99994C4.34961 7.5514 4.63022 7.15078 5.05175 6.99749L12.3851 4.33083C12.6113 4.24858 12.8586 4.24524 13.0869 4.32134L20.7162 6.86445L27.0201 4.3429C27.3488 4.21145 27.7212 4.25157 28.0143 4.45ZM6.48294 8.74706L11.6829 6.85615V23.2528L6.48294 25.1437V8.74706ZM19.6829 25.1867L13.8163 23.2311V6.81319L19.6829 8.76875V25.1867ZM21.8163 25.233L26.3496 23.873V6.90878L21.8163 8.72211V25.233Z" fill="#303336"/>
</svg>
