<svg width="33" height="32" viewBox="0 0 33 32" fill="none" xmlns="http://www.w3.org/2000/svg">
<path fill-rule="evenodd" clip-rule="evenodd" d="M11.15 2.66699C11.7391 2.66699 12.2167 3.14456 12.2167 3.73366V6.66705L21.2812 6.66716V3.73366C21.2812 3.14456 21.7588 2.66699 22.3479 2.66699C22.937 2.66699 23.4146 3.14456 23.4146 3.73366V6.66719L26.349 6.66722C27.6745 6.66724 28.749 7.74175 28.749 9.06722V25.6006C28.749 26.9261 27.6744 28.0006 26.349 28.0006H7.15C5.82452 28.0006 4.75 26.9261 4.75 25.6006V9.06699C4.75 7.7415 5.82453 6.66698 7.15003 6.66699L10.0833 6.66703V3.73366C10.0833 3.14456 10.5609 2.66699 11.15 2.66699ZM7.15 8.80033C7.00273 8.80032 6.88333 8.91971 6.88333 9.06699V12.2673H26.6156V9.06722C26.6156 8.91995 26.4962 8.80056 26.349 8.80055L7.15 8.80033ZM6.88333 25.6006V14.4006H26.6156V25.6006C26.6156 25.7478 26.4962 25.8672 26.349 25.8672H7.15C7.00272 25.8672 6.88333 25.7478 6.88333 25.6006ZM10.8854 18.667C10.149 18.667 9.55208 19.2639 9.55208 20.0003C9.55208 20.7367 10.149 21.3337 10.8854 21.3337C11.6218 21.3337 12.2188 20.7367 12.2188 20.0003C12.2188 19.2639 11.6218 18.667 10.8854 18.667ZM16.75 18.667C16.0136 18.667 15.4167 19.2639 15.4167 20.0003C15.4167 20.7367 16.0136 21.3337 16.75 21.3337C17.4864 21.3337 18.0833 20.7367 18.0833 20.0003C18.0833 19.2639 17.4864 18.667 16.75 18.667ZM21.2865 20.0003C21.2865 19.2639 21.8834 18.667 22.6198 18.667C23.3562 18.667 23.9531 19.2639 23.9531 20.0003C23.9531 20.7367 23.3562 21.3337 22.6198 21.3337C21.8834 21.3337 21.2865 20.7367 21.2865 20.0003Z" fill="#33363D"/>
</svg>
